<svg t="1633337920957" class="icon" viewBox="0 0 1026 1024" version="1.1" xmlns="http://www.w3.org/2000/svg" p-id="3385" width="200" height="200"><path d="M927.692008 304.704873c17.665497 0 31.937622 14.37193 31.937622 31.937622v586.853801c0 17.665497-14.272125 31.937622-31.937622 31.937622h-828.382066c-17.665497 0-31.937622-14.272125-31.937622-31.937622v-586.853801c0-17.665497 14.272125-31.937622 31.937622-31.937622h156.793762c8.683041 0 17.066667-3.493177 23.05497-9.780896L490.545809 75.153216c12.575439-13.074464 33.434698-13.074464 46.010136 0l211.28733 219.770761c6.088109 6.287719 14.37193 9.780897 23.054971 9.780896h156.793762z m-564.397661 0h300.413255L513.500975 152.801559 363.294347 304.704873z m532.460039 63.875244h-764.506823v522.978557h764.506823v-522.978557z m-592.842105 148.809357c-19.761404 0-35.929825-14.37193-35.929825-31.937622s16.168421-31.937622 35.929825-31.937622h401.615594c19.761404 0 35.929825 14.37193 35.929825 31.937622s-16.168421 31.937622-35.929825 31.937622H302.912281zM797.047173 591.844055c19.761404 0 35.929825 14.37193 35.929825 31.937621s-16.168421 31.937622-35.929825 31.937622H210.392982c-19.761404 0-35.929825-14.37193-35.929824-31.937622s16.168421-31.937622 35.929824-31.937621h586.654191zM298.121637 730.872515c19.761404 0 35.929825 14.37193 35.929825 31.937621s-16.168421 31.937622-35.929825 31.937622h-83.037816c-19.761404 0-35.929825-14.37193-35.929825-31.937622s16.168421-31.937622 35.929825-31.937621h83.037816z m494.134893-0.299416c19.761404 0 35.929825 14.37193 35.929825 31.937622s-16.168421 31.937622-35.929825 31.937622H424.674464c-19.761404 0-35.929825-14.37193-35.929825-31.937622s16.168421-31.937622 35.929825-31.937622h367.582066z" p-id="3386"></path></svg>